<mxfile host="app.diagrams.net" modified="2024-06-11T14:57:34.677Z" agent="Mozilla/5.0 (Windows NT 10.0; Win64; x64) AppleWebKit/537.36 (KHTML, like Gecko) Chrome/125.0.0.0 Safari/537.36" etag="Q1AWkOKNxvXgtPmVVvN9" version="24.3.1" type="device">
  <diagram name="Page-1" id="4ILLyqp6WZmPumhIKKUg">
    <mxGraphModel dx="1434" dy="738" grid="1" gridSize="10" guides="1" tooltips="1" connect="1" arrows="1" fold="1" page="1" pageScale="1" pageWidth="850" pageHeight="1100" math="0" shadow="0">
      <root>
        <mxCell id="0" />
        <mxCell id="1" parent="0" />
        <mxCell id="yoRbwI5DhY2uaUUYIUbz-15" style="edgeStyle=orthogonalEdgeStyle;rounded=0;orthogonalLoop=1;jettySize=auto;html=1;entryX=0.5;entryY=0;entryDx=0;entryDy=0;" edge="1" parent="1" source="yoRbwI5DhY2uaUUYIUbz-1" target="yoRbwI5DhY2uaUUYIUbz-6">
          <mxGeometry relative="1" as="geometry" />
        </mxCell>
        <mxCell id="yoRbwI5DhY2uaUUYIUbz-1" value="Subdomains" style="rounded=0;whiteSpace=wrap;html=1;" vertex="1" parent="1">
          <mxGeometry x="220" y="170" width="120" height="60" as="geometry" />
        </mxCell>
        <mxCell id="yoRbwI5DhY2uaUUYIUbz-14" style="edgeStyle=orthogonalEdgeStyle;rounded=0;orthogonalLoop=1;jettySize=auto;html=1;entryX=0.5;entryY=0;entryDx=0;entryDy=0;" edge="1" parent="1" source="yoRbwI5DhY2uaUUYIUbz-2" target="yoRbwI5DhY2uaUUYIUbz-6">
          <mxGeometry relative="1" as="geometry" />
        </mxCell>
        <mxCell id="yoRbwI5DhY2uaUUYIUbz-2" value="Prompts" style="rounded=0;whiteSpace=wrap;html=1;" vertex="1" parent="1">
          <mxGeometry x="220" y="100" width="120" height="60" as="geometry" />
        </mxCell>
        <mxCell id="yoRbwI5DhY2uaUUYIUbz-3" value="domains" style="rounded=0;whiteSpace=wrap;html=1;" vertex="1" parent="1">
          <mxGeometry x="610" y="310" width="120" height="60" as="geometry" />
        </mxCell>
        <mxCell id="yoRbwI5DhY2uaUUYIUbz-20" style="edgeStyle=orthogonalEdgeStyle;rounded=0;orthogonalLoop=1;jettySize=auto;html=1;entryX=0.5;entryY=0;entryDx=0;entryDy=0;" edge="1" parent="1" source="yoRbwI5DhY2uaUUYIUbz-4" target="yoRbwI5DhY2uaUUYIUbz-5">
          <mxGeometry relative="1" as="geometry" />
        </mxCell>
        <mxCell id="yoRbwI5DhY2uaUUYIUbz-4" value="Problems" style="rounded=0;whiteSpace=wrap;html=1;" vertex="1" parent="1">
          <mxGeometry x="610" y="410" width="120" height="60" as="geometry" />
        </mxCell>
        <mxCell id="yoRbwI5DhY2uaUUYIUbz-5" value="Plans" style="rounded=0;whiteSpace=wrap;html=1;" vertex="1" parent="1">
          <mxGeometry x="610" y="520" width="120" height="60" as="geometry" />
        </mxCell>
        <mxCell id="yoRbwI5DhY2uaUUYIUbz-16" style="edgeStyle=orthogonalEdgeStyle;rounded=0;orthogonalLoop=1;jettySize=auto;html=1;entryX=0.5;entryY=0;entryDx=0;entryDy=0;" edge="1" parent="1" source="yoRbwI5DhY2uaUUYIUbz-6" target="yoRbwI5DhY2uaUUYIUbz-7">
          <mxGeometry relative="1" as="geometry" />
        </mxCell>
        <mxCell id="yoRbwI5DhY2uaUUYIUbz-6" value="LLM" style="ellipse;whiteSpace=wrap;html=1;" vertex="1" parent="1">
          <mxGeometry x="390" y="170" width="120" height="80" as="geometry" />
        </mxCell>
        <mxCell id="yoRbwI5DhY2uaUUYIUbz-7" value="Domain" style="rounded=1;whiteSpace=wrap;html=1;" vertex="1" parent="1">
          <mxGeometry x="390" y="310" width="120" height="60" as="geometry" />
        </mxCell>
        <mxCell id="yoRbwI5DhY2uaUUYIUbz-8" value="&lt;div style=&quot;text-align: left;&quot;&gt;&lt;span style=&quot;background-color: initial;&quot;&gt;- Syntax error&lt;/span&gt;&lt;/div&gt;&lt;div style=&quot;text-align: left;&quot;&gt;- error planning&lt;/div&gt;&lt;div style=&quot;text-align: left;&quot;&gt;- differences in domains&lt;/div&gt;" style="rounded=0;whiteSpace=wrap;html=1;" vertex="1" parent="1">
          <mxGeometry x="140" y="270" width="150" height="80" as="geometry" />
        </mxCell>
        <mxCell id="yoRbwI5DhY2uaUUYIUbz-10" value="&lt;div style=&quot;text-align: left;&quot;&gt;&lt;span style=&quot;background-color: initial;&quot;&gt;- Numeric&lt;/span&gt;&lt;/div&gt;&lt;div style=&quot;text-align: left;&quot;&gt;- Time&lt;/div&gt;&lt;div style=&quot;text-align: left;&quot;&gt;- Strips&lt;/div&gt;&lt;div style=&quot;text-align: left;&quot;&gt;- Combination&lt;/div&gt;" style="rounded=0;whiteSpace=wrap;html=1;" vertex="1" parent="1">
          <mxGeometry x="140" y="360" width="100" height="80" as="geometry" />
        </mxCell>
        <mxCell id="yoRbwI5DhY2uaUUYIUbz-12" value="&lt;div style=&quot;text-align: left;&quot;&gt;- Natural Language + context&lt;/div&gt;&lt;div style=&quot;text-align: left;&quot;&gt;&lt;span style=&quot;background-color: initial;&quot;&gt;- Natural language&lt;/span&gt;&lt;/div&gt;&lt;div style=&quot;text-align: left;&quot;&gt;- Formatted&lt;/div&gt;&lt;div style=&quot;text-align: left;&quot;&gt;- w/ code&lt;/div&gt;&lt;div style=&quot;text-align: left;&quot;&gt;- Human expert&lt;/div&gt;" style="rounded=0;whiteSpace=wrap;html=1;" vertex="1" parent="1">
          <mxGeometry x="140" y="450" width="200" height="80" as="geometry" />
        </mxCell>
        <mxCell id="yoRbwI5DhY2uaUUYIUbz-13" value="&lt;div style=&quot;text-align: left;&quot;&gt;- 1 action&lt;/div&gt;&lt;div style=&quot;text-align: left;&quot;&gt;- 2 action&lt;/div&gt;&lt;div style=&quot;text-align: left;&quot;&gt;- 3 action&lt;/div&gt;&lt;div style=&quot;text-align: left;&quot;&gt;- 4 action&lt;/div&gt;&lt;div style=&quot;text-align: left;&quot;&gt;- 5 action&lt;/div&gt;" style="rounded=0;whiteSpace=wrap;html=1;" vertex="1" parent="1">
          <mxGeometry x="140" y="540" width="100" height="80" as="geometry" />
        </mxCell>
        <mxCell id="yoRbwI5DhY2uaUUYIUbz-17" value="" style="shape=flexArrow;endArrow=classic;startArrow=classic;html=1;rounded=0;entryX=0;entryY=0.5;entryDx=0;entryDy=0;exitX=1;exitY=0.5;exitDx=0;exitDy=0;" edge="1" parent="1" source="yoRbwI5DhY2uaUUYIUbz-7" target="yoRbwI5DhY2uaUUYIUbz-3">
          <mxGeometry width="100" height="100" relative="1" as="geometry">
            <mxPoint x="370" y="430" as="sourcePoint" />
            <mxPoint x="470" y="330" as="targetPoint" />
          </mxGeometry>
        </mxCell>
        <mxCell id="yoRbwI5DhY2uaUUYIUbz-19" value="" style="endArrow=classic;html=1;rounded=0;entryX=0;entryY=0.5;entryDx=0;entryDy=0;exitX=0.5;exitY=1;exitDx=0;exitDy=0;" edge="1" parent="1" source="yoRbwI5DhY2uaUUYIUbz-7" target="yoRbwI5DhY2uaUUYIUbz-4">
          <mxGeometry width="50" height="50" relative="1" as="geometry">
            <mxPoint x="400" y="410" as="sourcePoint" />
            <mxPoint x="450" y="360" as="targetPoint" />
            <Array as="points">
              <mxPoint x="450" y="440" />
            </Array>
          </mxGeometry>
        </mxCell>
        <mxCell id="yoRbwI5DhY2uaUUYIUbz-21" value="Syntax" style="text;html=1;align=center;verticalAlign=middle;whiteSpace=wrap;rounded=0;" vertex="1" parent="1">
          <mxGeometry x="740" y="425" width="60" height="30" as="geometry" />
        </mxCell>
        <mxCell id="yoRbwI5DhY2uaUUYIUbz-22" value="Differences" style="text;html=1;align=center;verticalAlign=middle;whiteSpace=wrap;rounded=0;" vertex="1" parent="1">
          <mxGeometry x="740" y="325" width="60" height="30" as="geometry" />
        </mxCell>
        <mxCell id="yoRbwI5DhY2uaUUYIUbz-23" value="error planning" style="text;html=1;align=center;verticalAlign=middle;whiteSpace=wrap;rounded=0;" vertex="1" parent="1">
          <mxGeometry x="740" y="535" width="60" height="30" as="geometry" />
        </mxCell>
      </root>
    </mxGraphModel>
  </diagram>
</mxfile>
